<svg id="barcode" width="308px" height="142px" x="0px" y="0px" viewBox="0 0 308 142" xmlns="http://www.w3.org/2000/svg" version="1.1" style="transform: translate(0px);"><rect x="0" y="0" width="308" height="142" style="fill:#ffffff;"/><g transform="translate(10, 10)" style="fill:#000000;"><rect x="0" y="0" width="2" height="100"/><rect x="8" y="0" width="2" height="100"/><rect x="12" y="0" width="6" height="100"/><rect x="20" y="0" width="6" height="100"/><rect x="28" y="0" width="2" height="100"/><rect x="32" y="0" width="6" height="100"/><rect x="40" y="0" width="2" height="100"/><rect x="48" y="0" width="2" height="100"/><rect x="52" y="0" width="2" height="100"/><rect x="56" y="0" width="6" height="100"/><rect x="64" y="0" width="2" height="100"/><rect x="68" y="0" width="6" height="100"/><rect x="80" y="0" width="2" height="100"/><rect x="84" y="0" width="6" height="100"/><rect x="92" y="0" width="2" height="100"/><rect x="96" y="0" width="6" height="100"/><rect x="104" y="0" width="2" height="100"/><rect x="112" y="0" width="6" height="100"/><rect x="120" y="0" width="2" height="100"/><rect x="124" y="0" width="2" height="100"/><rect x="128" y="0" width="2" height="100"/><rect x="132" y="0" width="6" height="100"/><rect x="144" y="0" width="2" height="100"/><rect x="148" y="0" width="2" height="100"/><rect x="152" y="0" width="6" height="100"/><rect x="160" y="0" width="6" height="100"/><rect x="168" y="0" width="2" height="100"/><rect x="176" y="0" width="2" height="100"/><rect x="180" y="0" width="2" height="100"/><rect x="184" y="0" width="6" height="100"/><rect x="192" y="0" width="2" height="100"/><rect x="196" y="0" width="6" height="100"/><rect x="208" y="0" width="2" height="100"/><rect x="212" y="0" width="6" height="100"/><rect x="220" y="0" width="2" height="100"/><rect x="224" y="0" width="6" height="100"/><rect x="232" y="0" width="2" height="100"/><rect x="240" y="0" width="2" height="100"/><rect x="244" y="0" width="2" height="100"/><rect x="248" y="0" width="6" height="100"/><rect x="256" y="0" width="2" height="100"/><rect x="264" y="0" width="2" height="100"/><rect x="268" y="0" width="6" height="100"/><rect x="276" y="0" width="6" height="100"/><rect x="284" y="0" width="2" height="100"/><text style="font: 20px monospace" text-anchor="middle" x="144" y="122">1952191</text></g></svg>