<?xml version="1.0" encoding="UTF-8"?>
<svg xmlns="http://www.w3.org/2000/svg" xmlns:xlink="http://www.w3.org/1999/xlink" width="4500" height="3500" viewBox="0 0 4500 3500">


<path fill-rule="evenodd" fill="rgb(5.447388%, 5.892944%, 5.529785%)" fill-opacity="1" d="M 571.375 900.539062 L 735.449219 900.539062 L 779.609375 855.339844 L 1222.859375 855.339844 L 1267.019531 900.539062 L 2553.671875 900.539062 L 2597.828125 855.339844 L 3427.191406 855.339844 L 3383.039062 900.539062 L 4016.941406 900.539062 L 3972.78125 945.75 L 3677.910156 945.75 L 3633.75 990.941406 L 3190.5 990.941406 L 3146.351562 945.75 L 2788.890625 945.75 L 2744.730469 990.941406 L 2301.488281 990.941406 L 2257.328125 945.75 L 1119.890625 945.75 L 1075.730469 990.941406 L 483.058594 990.941406 L 527.21875 945.75 L 527.21875 945.738281 L 527.222656 945.738281 Z M 3827.339844 855.339844 L 3932.800781 855.339844 L 3900.03125 888.890625 L 3794.570312 888.890625 Z M 3650.921875 855.339844 L 3756.378906 855.339844 L 3723.609375 888.890625 L 3618.148438 888.890625 Z M 3474.5 855.339844 L 3579.960938 855.339844 L 3547.191406 888.890625 L 3441.730469 888.890625 Z M 1812.070312 855.339844 L 1706.609375 855.339844 L 1739.378906 888.890625 L 1844.839844 888.890625 Z M 1673.839844 855.339844 L 1568.378906 855.339844 L 1601.148438 888.890625 L 1706.609375 888.890625 Z M 1535.609375 855.339844 L 1430.148438 855.339844 L 1462.921875 888.890625 L 1568.378906 888.890625 Z M 614.058594 900.539062 L 704.679688 900.539062 L 748.839844 855.339844 L 658.21875 855.339844 Z M 1397.378906 855.339844 L 1291.921875 855.339844 L 1324.691406 888.890625 L 1430.148438 888.890625 L 1397.378906 855.339844 "/>
<path fill-rule="evenodd" fill="rgb(5.447388%, 5.892944%, 5.529785%)" fill-opacity="1" d="M 571.375 1199.988281 L 735.449219 1199.988281 L 779.609375 1154.789062 L 1222.859375 1154.789062 L 1267.019531 1199.988281 L 2553.671875 1199.988281 L 2597.828125 1154.789062 L 3427.191406 1154.789062 L 3383.039062 1199.988281 L 4016.941406 1199.988281 L 3994.871094 1222.589844 L 3114.851562 1222.589844 L 3092.761719 1245.191406 L 2788.890625 1245.191406 L 2744.730469 1290.390625 L 2301.488281 1290.390625 L 2257.328125 1245.191406 L 2041.5 1245.191406 L 1997.339844 1290.390625 L 1076.570312 1290.390625 L 1120.71875 1245.191406 L 939.066406 1245.191406 L 894.914062 1290.390625 L 483.058594 1290.390625 L 527.21875 1245.191406 L 527.222656 1245.191406 Z M 3827.339844 1154.789062 L 3932.800781 1154.789062 L 3900.03125 1188.339844 L 3794.570312 1188.339844 Z M 3650.921875 1154.789062 L 3756.378906 1154.789062 L 3723.609375 1188.339844 L 3618.148438 1188.339844 Z M 3474.5 1154.789062 L 3579.960938 1154.789062 L 3547.191406 1188.339844 L 3441.730469 1188.339844 Z M 2821.660156 1256.851562 L 2927.121094 1256.851562 L 2894.351562 1290.390625 L 2788.890625 1290.390625 Z M 2959.890625 1256.851562 L 3065.351562 1256.851562 L 3032.578125 1290.390625 L 2927.121094 1290.390625 Z M 1535.609375 1154.789062 L 1430.148438 1154.789062 L 1462.921875 1188.339844 L 1568.378906 1188.339844 Z M 614.058594 1199.988281 L 704.679688 1199.988281 L 748.839844 1154.789062 L 658.21875 1154.789062 Z M 1397.378906 1154.789062 L 1291.921875 1154.789062 L 1324.691406 1188.339844 L 1430.148438 1188.339844 L 1397.378906 1154.789062 "/>
<path fill-rule="evenodd" fill="rgb(5.447388%, 5.892944%, 5.529785%)" fill-opacity="1" d="M 1257.421875 1585.160156 L 1502.371094 1585.160156 L 1458.21875 1630.359375 L 2296.539062 1630.359375 L 2312.921875 1613.589844 L 2418.378906 1613.589844 L 2402 1630.359375 L 2434.769531 1630.359375 L 2451.148438 1613.589844 L 2556.609375 1613.589844 L 2540.230469 1630.359375 L 2764.679688 1630.359375 L 2781.058594 1613.589844 L 2886.519531 1613.589844 L 2870.140625 1630.359375 L 2902.910156 1630.359375 L 2919.289062 1613.589844 L 3024.75 1613.589844 L 3008.371094 1630.359375 L 3157.351562 1630.359375 L 3179.429688 1607.75 L 3454.558594 1607.75 L 3432.46875 1630.371094 L 4045.011719 1630.371094 L 4022.941406 1652.960938 L 3142.921875 1652.960938 L 3120.828125 1675.570312 L 2175.589844 1675.570312 L 2131.429688 1720.769531 L 1719.578125 1720.769531 L 1763.730469 1675.570312 L 1681.980469 1675.570312 L 1637.820312 1720.769531 L 1225.96875 1720.769531 L 1270.128906 1675.570312 L 1188.371094 1675.570312 L 1144.210938 1720.769531 L 700.964844 1720.769531 L 656.808594 1675.570312 L 454.992188 1675.570312 L 499.152344 1630.371094 L 1213.261719 1630.371094 Z M 1120.511719 1585.160156 L 1225.96875 1585.160156 L 1193.199219 1618.710938 L 1087.738281 1618.710938 Z M 982.277344 1585.160156 L 1087.738281 1585.160156 L 1054.96875 1618.710938 L 949.507812 1618.710938 L 982.277344 1585.160156 "/>
<path fill-rule="evenodd" fill="rgb(5.447388%, 5.892944%, 5.529785%)" fill-opacity="1" d="M 1909.351562 2159.859375 L 2590.660156 2159.859375 L 2613.960938 2183.699219 L 1886.050781 2183.710938 Z M 2133.648438 1958.269531 C 2153.28125 1958.269531 2169.199219 1974.191406 2169.199219 1993.820312 C 2169.199219 2013.449219 2153.28125 2029.371094 2133.648438 2029.371094 C 2114.011719 2029.371094 2098.089844 2013.449219 2098.089844 1993.820312 C 2098.089844 1974.191406 2114.011719 1958.269531 2133.648438 1958.269531 Z M 2250 1958.269531 C 2269.640625 1958.269531 2285.550781 1974.191406 2285.550781 1993.820312 C 2285.550781 2013.449219 2269.640625 2029.371094 2250 2029.371094 C 2230.359375 2029.371094 2214.449219 2013.449219 2214.449219 1993.820312 C 2214.449219 1974.191406 2230.359375 1958.269531 2250 1958.269531 Z M 2366.351562 1958.269531 C 2385.988281 1958.269531 2401.910156 1974.191406 2401.910156 1993.820312 C 2401.910156 2013.449219 2385.988281 2029.371094 2366.351562 2029.371094 C 2346.71875 2029.371094 2330.800781 2013.449219 2330.800781 1993.820312 C 2330.800781 1974.191406 2346.71875 1958.269531 2366.351562 1958.269531 Z M 4030.78125 2136.011719 L 2825.109375 2136.011719 L 2778.511719 2088.308594 L 1721.488281 2088.308594 L 1674.890625 2136.011719 L 469.222656 2136.011719 L 448.5 2157.21875 L 842.390625 2157.21875 L 816.515625 2183.710938 L 1718.101562 2183.710938 L 1764.691406 2136.011719 L 2735.308594 2136.011719 L 2781.898438 2183.710938 L 3683.488281 2183.710938 L 3657.609375 2157.21875 L 4051.5 2157.21875 Z M 2946.101562 2088.308594 L 2834.808594 2088.308594 L 2869.390625 2123.710938 L 2980.679688 2123.710938 Z M 3091.96875 2088.308594 L 2980.679688 2088.308594 L 3015.261719 2123.710938 L 3126.550781 2123.710938 Z M 3187.949219 2112.160156 L 4007.480469 2112.160156 L 3984.179688 2088.320312 L 3164.648438 2088.308594 Z M 1553.898438 2088.308594 L 1665.191406 2088.308594 L 1630.609375 2123.710938 L 1519.320312 2123.710938 Z M 1408.03125 2088.308594 L 1519.320312 2088.308594 L 1484.738281 2123.710938 L 1373.449219 2123.710938 Z M 1312.050781 2112.160156 L 492.515625 2112.160156 L 515.816406 2088.320312 L 1335.351562 2088.308594 L 1312.050781 2112.160156 "/>
<path fill-rule="evenodd" fill="rgb(5.447388%, 5.892944%, 5.529785%)" fill-opacity="1" d="M 1790.058594 2588.152344 L 2471.371094 2588.152344 L 2494.671875 2611.996094 L 1766.761719 2612.003906 Z M 2946.441406 2516.605469 L 2946.101562 2516.605469 L 2980.679688 2552 L 2869.390625 2552 L 2834.808594 2516.605469 L 2869.5 2481.101562 L 2981.128906 2481.101562 Z M 3092.761719 2516.605469 L 3091.96875 2516.605469 L 3126.550781 2552 L 3015.261719 2552 L 2980.679688 2516.605469 L 2981.128906 2516.605469 L 3015.820312 2481.101562 L 3127.441406 2481.101562 Z M 3640.828125 2421.210938 L 2781.898438 2421.210938 L 2735.300781 2468.898438 L 989.6875 2468.898438 L 968.960938 2490.109375 L 1902.800781 2490.109375 L 1876.921875 2516.605469 L 1721.488281 2516.605469 L 1674.890625 2564.300781 L 469.226562 2564.300781 L 448.5 2585.507812 L 842.390625 2585.507812 L 816.511719 2612.003906 L 1718.101562 2612.003906 L 1764.691406 2564.300781 L 2494.21875 2564.300781 L 2540.808594 2612.003906 L 3683.488281 2612.003906 L 3657.609375 2585.507812 L 4051.5 2585.507812 L 4030.769531 2564.300781 L 2825.109375 2564.300781 L 2778.511719 2516.605469 L 2825.101562 2468.898438 L 3687.429688 2468.898438 Z M 2614.300781 2421.210938 L 2725.589844 2421.210938 L 2691.011719 2456.601562 L 2579.71875 2456.601562 Z M 2468.429688 2421.210938 L 2579.71875 2421.210938 L 2545.140625 2456.601562 L 2433.851562 2456.601562 Z M 2372.449219 2445.058594 L 1552.921875 2445.058594 L 1576.21875 2421.210938 L 2395.761719 2421.210938 Z M 2593.078125 2544.6875 C 2603.910156 2544.6875 2612.691406 2553.46875 2612.691406 2564.300781 C 2612.691406 2575.132812 2603.910156 2583.914062 2593.078125 2583.914062 C 2582.238281 2583.914062 2573.460938 2575.132812 2573.460938 2564.300781 C 2573.460938 2553.46875 2582.238281 2544.6875 2593.078125 2544.6875 Z M 2657.261719 2544.6875 C 2668.101562 2544.6875 2676.878906 2553.46875 2676.878906 2564.300781 C 2676.878906 2575.132812 2668.101562 2583.914062 2657.261719 2583.914062 C 2646.429688 2583.914062 2637.648438 2575.132812 2637.648438 2564.300781 C 2637.648438 2553.46875 2646.429688 2544.6875 2657.261719 2544.6875 Z M 2721.460938 2544.6875 C 2732.289062 2544.6875 2741.070312 2553.46875 2741.070312 2564.300781 C 2741.070312 2575.132812 2732.289062 2583.914062 2721.460938 2583.914062 C 2710.628906 2583.914062 2701.839844 2575.132812 2701.839844 2564.300781 C 2701.839844 2553.46875 2710.628906 2544.6875 2721.460938 2544.6875 Z M 3187.949219 2540.457031 L 4007.480469 2540.457031 L 3984.179688 2516.609375 L 3164.648438 2516.605469 Z M 1553.898438 2516.605469 L 1665.191406 2516.605469 L 1630.609375 2552 L 1519.320312 2552 Z M 1408.03125 2516.605469 L 1519.320312 2516.605469 L 1484.738281 2552 L 1373.449219 2552 Z M 1312.050781 2540.457031 L 492.519531 2540.457031 L 515.816406 2516.609375 L 1335.351562 2516.605469 L 1312.050781 2540.457031 "/>
<path fill-rule="evenodd" fill="rgb(5.447388%, 5.892944%, 5.529785%)" fill-opacity="1" d="M 3176.789062 2918.960938 L 3076.941406 2918.960938 L 3107.960938 2950.722656 L 3076.941406 2982.480469 L 3176.789062 2982.480469 L 3207.808594 2950.722656 Z M 880.683594 2933.589844 L 864.15625 2943.128906 L 847.628906 2952.671875 L 847.628906 2990.832031 L 864.15625 3000.378906 L 880.683594 3009.914062 L 897.203125 3000.378906 L 913.730469 2990.832031 L 913.730469 2952.671875 L 897.203125 2943.128906 Z M 779.671875 2933.589844 L 763.144531 2943.128906 L 746.621094 2952.671875 L 746.621094 2990.832031 L 763.144531 3000.378906 L 779.671875 3009.914062 L 796.199219 3000.378906 L 812.71875 2990.832031 L 812.71875 2952.671875 L 796.199219 2943.128906 Z M 678.660156 2933.589844 L 662.140625 2943.128906 L 645.613281 2952.671875 L 645.613281 2990.832031 L 662.140625 3000.378906 L 678.660156 3009.914062 L 695.1875 3000.378906 L 711.714844 2990.832031 L 711.714844 2952.671875 L 695.1875 2943.128906 Z M 1061.460938 2982.480469 L 1161.308594 2982.480469 L 1130.28125 2950.722656 L 1161.308594 2918.960938 L 1061.460938 2918.960938 L 1030.429688 2950.722656 Z M 1192.339844 2982.480469 L 1292.191406 2982.480469 L 1261.160156 2950.722656 L 1292.191406 2918.960938 L 1192.339844 2918.960938 L 1161.308594 2950.722656 Z M 1323.210938 2982.480469 L 1423.058594 2982.480469 L 1392.039062 2950.722656 L 1423.058594 2918.960938 L 1323.210938 2918.960938 L 1292.191406 2950.722656 Z M 521.835938 3090.152344 L 757.078125 3090.152344 L 715.269531 3132.949219 L 1153.960938 3132.949219 L 1195.78125 3090.152344 L 1237.589844 3047.355469 L 2078.789062 3047.355469 L 2099.710938 3025.945312 L 2400.289062 3025.945312 L 2421.210938 3047.355469 L 3262.410156 3047.355469 L 3304.21875 3090.152344 L 3346.03125 3132.949219 L 3784.730469 3132.949219 L 3742.921875 3090.152344 L 3978.160156 3090.152344 L 4019.96875 3047.355469 L 3536.058594 3047.355469 L 3494.25 3004.554688 L 3056.46875 3004.554688 L 2972.851562 2918.960938 L 1527.148438 2918.960938 L 1443.53125 3004.554688 L 1005.75 3004.554688 L 963.941406 3047.355469 L 480.023438 3047.355469 Z M 1529.328125 3004.554688 L 1571.140625 2961.757812 L 2078.789062 2961.757812 L 2099.710938 2940.351562 L 2400.289062 2940.351562 L 2421.210938 2961.757812 L 2928.859375 2961.757812 L 2970.671875 3004.554688 Z M 1240.898438 3068.75 L 3259.101562 3068.75 L 3300.910156 3111.546875 L 1199.089844 3111.546875 Z M 3619.320312 2933.589844 L 3635.839844 2943.136719 L 3652.371094 2952.671875 L 3652.371094 2990.832031 L 3635.839844 3000.378906 L 3619.320312 3009.914062 L 3602.800781 3000.378906 L 3586.269531 2990.832031 L 3586.269531 2952.671875 L 3602.800781 2943.136719 Z M 3720.328125 2933.589844 L 3736.859375 2943.136719 L 3753.378906 2952.671875 L 3753.378906 2990.832031 L 3736.859375 3000.378906 L 3720.328125 3009.914062 L 3703.800781 3000.378906 L 3687.28125 2990.832031 L 3687.28125 2952.671875 L 3703.800781 2943.136719 Z M 3821.328125 2933.589844 L 3837.859375 2943.136719 L 3854.390625 2952.671875 L 3854.390625 2990.832031 L 3837.859375 3000.378906 L 3821.328125 3009.914062 L 3804.808594 3000.378906 L 3788.289062 2990.832031 L 3788.289062 2952.671875 L 3804.808594 2943.136719 Z M 3438.539062 2982.480469 L 3338.691406 2982.480469 L 3369.71875 2950.722656 L 3338.691406 2918.960938 L 3438.539062 2918.960938 L 3469.570312 2950.722656 Z M 3307.660156 2982.480469 L 3207.808594 2982.480469 L 3238.839844 2950.722656 L 3207.808594 2918.960938 L 3307.660156 2918.960938 L 3338.691406 2950.722656 L 3307.660156 2982.480469 "/>
</svg>
